G04 DipTrace 3.0.0.2*
G04 crowbar.GTO*
%MOMM*%
G04 #@! TF.FileFunction,Legend,Top*
G04 #@! TF.Part,Single*
%ADD10C,0.25*%
%ADD16O,0.39045X0.39104*%
%ADD20O,0.39172X0.39127*%
%ADD38C,0.19608*%
%ADD39C,0.27451*%
%ADD40C,0.23529*%
%FSLAX35Y35*%
G04*
G71*
G90*
G75*
G01*
G04 TopSilk*
%LPD*%
X2574304Y2272769D2*
D10*
Y1252737D1*
Y2272769D2*
X2834261D1*
X2574304Y1252737D2*
X2834261D1*
D16*
X2172380Y2140377D3*
X1888310Y1613813D2*
D10*
X2018210D1*
D20*
X1407899Y1841116D3*
X1535260Y1817746D2*
D10*
Y1517760D1*
X1585260D1*
Y1817746D1*
X1535260D1*
G36*
X2874010Y2270760D2*
X3858260D1*
Y1254760D1*
X2874010D1*
Y2270760D1*
G37*
X2534634Y2468740D2*
D38*
Y2377630D1*
X2540670Y2359380D1*
X2552884Y2347307D1*
X2571134Y2341130D1*
X2583207D1*
X2601457Y2347307D1*
X2613670Y2359380D1*
X2619707Y2377630D1*
Y2468740D1*
X2658923Y2444313D2*
X2671136Y2450490D1*
X2689386Y2468600D1*
Y2341130D1*
X1372060Y2098384D2*
Y2152994D1*
X1365883Y2171244D1*
X1359847Y2177421D1*
X1347774Y2183457D1*
X1335560D1*
X1323487Y2177421D1*
X1317310Y2171244D1*
X1311273Y2152994D1*
Y2098384D1*
X1438883D1*
X1372060Y2140921D2*
X1438883Y2183457D1*
X1335700Y2222673D2*
X1329524Y2234886D1*
X1311414Y2253136D1*
X1438883D1*
X1181560Y1181579D2*
Y1236189D1*
X1175383Y1254439D1*
X1169347Y1260616D1*
X1157274Y1266652D1*
X1145060D1*
X1132987Y1260616D1*
X1126810Y1254439D1*
X1120773Y1236189D1*
Y1181579D1*
X1248383D1*
X1181560Y1224116D2*
X1248383Y1266652D1*
X1151237Y1312045D2*
X1145200D1*
X1132987Y1318082D1*
X1126950Y1324118D1*
X1120914Y1336331D1*
Y1360618D1*
X1126950Y1372691D1*
X1132987Y1378728D1*
X1145200Y1384905D1*
X1157274Y1384904D1*
X1169487Y1378728D1*
X1187597Y1366654D1*
X1248383Y1305868D1*
Y1390941D1*
X1753060Y2007079D2*
Y2061689D1*
X1746883Y2079939D1*
X1740847Y2086116D1*
X1728774Y2092152D1*
X1716560D1*
X1704487Y2086116D1*
X1698310Y2079939D1*
X1692273Y2061689D1*
Y2007079D1*
X1819883D1*
X1753060Y2049616D2*
X1819883Y2092152D1*
X1692414Y2143582D2*
Y2210264D1*
X1740987Y2173905D1*
Y2192154D1*
X1747024Y2204228D1*
X1753060Y2210264D1*
X1771310Y2216441D1*
X1783383D1*
X1801633Y2210264D1*
X1813847Y2198191D1*
X1819883Y2179941D1*
Y2161691D1*
X1813847Y2143581D1*
X1807670Y2137545D1*
X1795597Y2131368D1*
X1722597Y1444502D2*
X1710524Y1438466D1*
X1698310Y1426252D1*
X1692273Y1414179D1*
Y1389893D1*
X1698310Y1377679D1*
X1710523Y1365606D1*
X1722596Y1359429D1*
X1740846Y1353393D1*
X1771310D1*
X1789420Y1359429D1*
X1801633Y1365606D1*
X1813706Y1377679D1*
X1819883Y1389892D1*
Y1414179D1*
X1813706Y1426252D1*
X1801633Y1438465D1*
X1789420Y1444502D1*
X1716700Y1483718D2*
X1710524Y1495931D1*
X1692414Y1514181D1*
X1819883D1*
X1389856Y1475167D2*
Y1384057D1*
X1395892Y1365807D1*
X1408106Y1353734D1*
X1426356Y1347557D1*
X1438429D1*
X1456679Y1353734D1*
X1468892Y1365807D1*
X1474929Y1384057D1*
Y1475167D1*
X1520321Y1444703D2*
Y1450740D1*
X1526358Y1462953D1*
X1532395Y1468990D1*
X1544608Y1475026D1*
X1568895D1*
X1580968Y1468990D1*
X1587004Y1462953D1*
X1593181Y1450740D1*
Y1438667D1*
X1587004Y1426453D1*
X1574931Y1408344D1*
X1514145Y1347557D1*
X1599218D1*
X1833331Y2483332D2*
D39*
Y2330228D1*
X1756878Y2406682D2*
X1909981D1*
X1964883Y2496205D2*
X2032885Y2317551D1*
X2100888Y2496205D1*
X1896000Y1198432D2*
D40*
X1888756Y1212920D1*
X1874100Y1227576D1*
X1859612Y1234820D1*
X1830468D1*
X1815812Y1227576D1*
X1801324Y1212920D1*
X1793912Y1198432D1*
X1786668Y1176532D1*
Y1139976D1*
X1793912Y1118245D1*
X1801324Y1103588D1*
X1815812Y1089101D1*
X1830468Y1081688D1*
X1859612D1*
X1874100Y1089101D1*
X1888756Y1103588D1*
X1896000Y1118245D1*
Y1139976D1*
X1859612D1*
X2045146Y1234820D2*
Y1081688D1*
X1943058Y1234820D1*
Y1081688D1*
X2092205Y1234820D2*
Y1081688D1*
X2143249D1*
X2165149Y1089101D1*
X2179805Y1103588D1*
X2187049Y1118245D1*
X2194293Y1139976D1*
Y1176532D1*
X2187049Y1198432D1*
X2179805Y1212920D1*
X2165149Y1227576D1*
X2143249Y1234820D1*
X2092205D1*
M02*
