G04 DipTrace 3.0.0.2*
G04 crowbar.GTL*
%MOMM*%
G04 #@! TF.FileFunction,Copper,L1,Top*
G04 #@! TF.Part,Single*
G04 #@! TA.AperFunction,Conductor*
%ADD13C,0.33*%
%ADD14C,1.27*%
G04 #@! TA.AperFunction,CopperBalancing*
%ADD15C,0.635*%
%ADD17R,3.95X1.5*%
%ADD18R,9.7X10.4*%
%ADD19R,1.5X1.3*%
%ADD21R,1.05X0.65*%
G04 #@! TA.AperFunction,ComponentPad*
%ADD22C,2.54*%
%ADD23C,1.5*%
%FSLAX35Y35*%
G04*
G71*
G90*
G75*
G01*
G04 Top*
%LPD*%
X1191260Y2080760D2*
D13*
Y1698760D1*
X1255260D1*
X1381760Y1572260D1*
X1444760D1*
X1445260Y1572760D1*
X2334260Y1254760D2*
D14*
X2856267D1*
X3364260Y1762753D1*
X1675260Y1667760D2*
D13*
Y1471333D1*
X1764833Y1381760D1*
X1828333Y1318260D1*
X1952760D1*
X1953260Y1318760D1*
X2270260D1*
X2334260Y1254760D1*
X1191260Y1508760D2*
X1318260Y1381760D1*
X1764833D1*
X1445260Y1762760D2*
Y1889760D1*
Y2143760D1*
X1572260D1*
X2334260Y1508747D2*
X1953273D1*
X1953260Y1508760D1*
Y1762760D1*
X1826260Y1889760D1*
X1445260D1*
X2334260Y2397760D2*
D14*
Y2016760D1*
X1191260Y2270760D2*
D13*
X1381760D1*
X1445260Y2334260D1*
X1571760D1*
X1572260Y2333760D1*
X2270260D1*
X2334260Y2397760D1*
X2532288Y2429843D2*
D15*
X3820160D1*
X2532412Y2366677D2*
X3820160D1*
X2510584Y2303510D2*
X3820160D1*
X1720927Y2240343D2*
X2197127D1*
X2471393D2*
X3820160D1*
X1720927Y2177177D2*
X2197127D1*
X2471393D2*
X3820160D1*
X1720927Y2114010D2*
X2063058D1*
X2605462D2*
X3820160D1*
X1720927Y2050843D2*
X2063058D1*
X2605462D2*
X3820160D1*
X1535388Y1987677D2*
X2063058D1*
X2605462D2*
X3820160D1*
X1916388Y1924510D2*
X2063058D1*
X2605462D2*
X3820160D1*
X1979516Y1861343D2*
X3820160D1*
X1571479Y1798177D2*
X1793059D1*
X2035574D2*
X3820160D1*
X1571479Y1735010D2*
X1856187D1*
X2043388D2*
X3820160D1*
X1571479Y1671843D2*
X1863132D1*
X2043388D2*
X3820160D1*
X1571479Y1608677D2*
X1804593D1*
X2605462D2*
X3820160D1*
X1102360Y1545510D2*
X1283695D1*
X1571479D2*
X1804593D1*
X2605462D2*
X3820160D1*
X1102360Y1482343D2*
X1319041D1*
X1571479D2*
X1804593D1*
X2605462D2*
X3820160D1*
X1102360Y1419177D2*
X1804593D1*
X2605462D2*
X3820160D1*
X1102360Y1356010D2*
X3820160D1*
X1102360Y1292843D2*
X3820160D1*
X1102360Y1229677D2*
X3820160D1*
X1102360Y1166510D2*
X3820160D1*
X1102360Y1103343D2*
X3820160D1*
X2101200Y2159070D2*
X2203519D1*
X2203450Y2250048D1*
X1714511Y2249950D1*
X1714570Y2011450D1*
X1529155D1*
X1529070Y1973476D1*
X1832836Y1973312D1*
X1852159Y1969468D1*
X1870051Y1961220D1*
X1885523Y1949023D1*
X1886098Y1948400D1*
X2016990Y1817190D1*
X2027935Y1800809D1*
X2034754Y1782325D1*
X2037070Y1762760D1*
X2037037Y1761912D1*
X2037070Y1641093D1*
X2069376Y1641070D1*
X2069450Y1651057D1*
X2599070D1*
Y1366437D1*
X2069450D1*
Y1376482D1*
X1810950Y1376450D1*
Y1641070D1*
X1869365D1*
X1869450Y1728157D1*
X1791479Y1806016D1*
X1565191Y1805950D1*
X1565070Y1472950D1*
X1325450D1*
Y1510281D1*
X1269089Y1566405D1*
X1096065Y1566450D1*
X1096010Y1096010D1*
X3826510D1*
Y2493010D1*
X2503552D1*
X2513779Y2472119D1*
X2523201Y2443121D1*
X2527971Y2413005D1*
Y2382515D1*
X2523201Y2352399D1*
X2513779Y2323401D1*
X2499937Y2296233D1*
X2482014Y2271566D1*
X2465050Y2254253D1*
X2465070Y2159015D1*
X2599070Y2159070D1*
Y1874450D1*
X2069450D1*
Y2159070D1*
X2101200D1*
D17*
X2334260Y2016760D3*
Y1508747D3*
D18*
X3364260Y1762753D3*
D19*
X1191260Y2270760D3*
Y2080760D3*
Y1508760D3*
Y1698760D3*
X1572260Y2143760D3*
Y2333760D3*
X1953260Y1508760D3*
Y1318760D3*
D21*
X1445260Y1762760D3*
Y1572760D3*
X1675260Y1667760D3*
D22*
X2334260Y1254760D3*
Y2397760D3*
D23*
X2810510D3*
X3001010D3*
X3191510D3*
X3382010D3*
X3572510D3*
X3763010D3*
X3001010Y1159510D3*
X3191510D3*
X3382010D3*
X3572510D3*
X3763010D3*
M02*
